# xmcd
#
# Track frame offsets: 
#        150
#        26192
#        60207
#        83922
#        107805
#        149665
#        173977
#
# Disc length: 2615 seconds
#
# Revision: 4
# Processed by: cddbd v1.5.2PL0 Copyright (c) Steve Scherf et al.
# Submitted via: ExactAudioCopy v0.99pb4
#
DISCID=5d0a3507
DTITLE=Isaac Hayes - Black Moses [CD 2)
DYEAR=1971
DGENRE=Soul
TTITLE0=Never Gonna Give You Up
TTITLE1=Medley: Ike's Rap II | Help Me Love
TTITLE2=Need To Belong To Someone
TTITLE3=Good Love
TTITLE4=Medley: Ike's Rap III | Your love Is So Doggone Good
TTITLE5=For The Good Times
TTITLE6=I'll Never Fall In Love Again
EXTD=© 1990\nTwo Disc-Set [CD 2 of 2]\nLabel: Stax Records (Fantasy, I
EXTD=nc.]\nSCD 88006-2
EXTT0=
EXTT1=
EXTT2=
EXTT3=
EXTT4=
EXTT5=
EXTT6=
PLAYORDER=
